<?xml version="1.0" encoding="utf-8"?>
<!-- Generator: Adobe Illustrator 25.4.1, SVG Export Plug-In . SVG Version: 6.00 Build 0)  -->
<svg version="1.1" id="Layer_1" xmlns="http://www.w3.org/2000/svg" xmlns:xlink="http://www.w3.org/1999/xlink" x="0px" y="0px"
	 viewBox="0 0 122.7 292.72" style="enable-background:new 0 0 122.7 292.72;" xml:space="preserve">
<style type="text/css">
	.st0{display:none;}
	.st1{display:inline;}
	.st2{opacity:0.2;}
	.st3{fill:#C38264;}
	.st4{display:inline;opacity:0.2;}
	.st5{display:inline;opacity:0.2;clip-path:url(#SVGID_00000177459493930363631610000007142285927339316901_);}
	.st6{fill:#997F60;}
	.st7{display:inline;opacity:0.2;clip-path:url(#SVGID_00000034072974156391226550000015631219076996939946_);}
	.st8{fill:#505353;}
	.st9{clip-path:url(#SVGID_00000085971570184289928920000017533471875858862488_);}
	.st10{fill:#868872;}
	.st11{opacity:0.2;fill:#868872;}
</style>
<g class="st0">
	<g class="st1">
		<g class="st2">
			<g>
				<g>
					<path class="st3" d="M59.9,15.59c5.26,0,7.58,1.33,10.78,3.17c3.96,2.28,8.89,5.1,18.04,5.1V9.27c-5.26,0-7.58-1.33-10.78-3.17
						C73.98,3.83,69.05,1,59.9,1c-9.15,0-14.08,2.83-18.05,5.1c-3.21,1.84-5.52,3.17-10.79,3.17v14.59c9.15,0,14.08-2.83,18.05-5.1
						C52.32,16.92,54.64,15.59,59.9,15.59z M106.77,66.3c-3.96-2.28-8.89-5.1-18.04-5.1s-14.08,2.83-18.04,5.1
						c-3.21,1.84-5.52,3.17-10.78,3.17c-5.26,0-7.58-1.33-10.79-3.17c-3.96-2.28-8.89-5.1-18.05-5.1c-9.16,0-14.1,2.83-18.06,5.1
						c-3.21,1.84-5.53,3.17-10.82,3.17v14.59c9.16,0,14.1-2.83,18.07-5.1c3.21-1.84,5.53-3.17,10.81-3.17
						c5.26,0,7.58,1.33,10.79,3.17c3.96,2.28,8.89,5.1,18.05,5.1c9.15,0,14.08-2.83,18.04-5.1c3.21-1.84,5.52-3.17,10.78-3.17
						c5.26,0,7.58,1.33,10.78,3.17c3.96,2.28,8.89,5.1,18.04,5.1V69.46C112.29,69.46,109.97,68.13,106.77,66.3z"/>
				</g>
			</g>
		</g>
	</g>
	<g class="st4">
		<g>
			<path class="st3" d="M35.49,291.72l-12.41-4.09V142.68H2.12v-16h36.96v144.8c14.59-6.22,45.08-14.02,82.62,5.62l-7.42,14.18
				c-43.1-22.55-74.25-2.56-75.55-1.69L35.49,291.72z"/>
		</g>
	</g>
</g>
<g class="st0">
	<defs>
		
			<rect id="SVGID_1_" x="-19.43" y="-40.83" transform="matrix(-1 -1.224647e-16 1.224647e-16 -1 102.0819 266.6618)" width="140.95" height="348.33"/>
	</defs>
	<clipPath id="SVGID_00000026140704284052964440000006665581464532058552_" class="st1">
		<use xlink:href="#SVGID_1_"  style="overflow:visible;"/>
	</clipPath>
	<g style="display:inline;opacity:0.2;clip-path:url(#SVGID_00000026140704284052964440000006665581464532058552_);">
		<g>
			<g>
				<path class="st6" d="M197.74,103.81c-4.42-2.54-9.93-5.7-20.15-5.7c-10.21,0-15.72,3.16-20.14,5.7
					c-3.58,2.05-6.16,3.53-12.04,3.53c-5.88,0-8.46-1.48-12.04-3.53c-4.42-2.54-9.93-5.7-20.14-5.7c-10.22,0-15.72,3.16-20.15,5.7
					c-3.58,2.05-6.17,3.53-12.04,3.53c-5.89,0-8.48-1.48-12.07-3.54c-4.43-2.54-9.94-5.69-20.17-5.69
					c-10.23,0-15.74,3.16-20.17,5.69c-3.59,2.06-6.18,3.54-12.07,3.54v16.29c10.23,0,15.74-3.16,20.17-5.69
					c3.59-2.06,6.18-3.54,12.07-3.54c5.9,0,8.49,1.48,12.08,3.54c4.43,2.54,9.94,5.69,20.17,5.69c10.22,0,15.72-3.16,20.15-5.7
					c3.58-2.05,6.17-3.53,12.04-3.53c5.88,0,8.46,1.48,12.04,3.53c4.42,2.54,9.93,5.7,20.14,5.7s15.72-3.16,20.14-5.7
					c3.58-2.05,6.16-3.53,12.04-3.53c5.88,0,8.46,1.48,12.04,3.54c4.42,2.54,9.93,5.69,20.14,5.69v-16.29
					C203.9,107.35,201.32,105.86,197.74,103.81z M81.05,68.12c5.88,0,8.46,1.48,12.04,3.53c4.43,2.54,9.93,5.7,20.15,5.7
					c10.21,0,15.72-3.16,20.14-5.7c3.58-2.05,6.16-3.53,12.04-3.53c5.87,0,8.46,1.48,12.04,3.53c4.42,2.54,9.92,5.7,20.14,5.7V61.06
					c-5.87,0-8.46-1.48-12.04-3.53c-4.42-2.54-9.92-5.7-20.14-5.7c-10.21,0-15.72,3.16-20.14,5.7c-3.58,2.05-6.16,3.53-12.04,3.53
					s-8.46-1.48-12.04-3.53c-4.43-2.54-9.93-5.7-20.15-5.7c-10.23,0-15.74,3.16-20.17,5.69c-3.59,2.06-6.18,3.54-12.08,3.54v16.29
					c10.23,0,15.74-3.16,20.17-5.69C72.56,69.6,75.15,68.12,81.05,68.12z M113.24,21.84c5.88,0,8.46,1.48,12.04,3.53
					c4.42,2.54,9.93,5.7,20.14,5.7V14.78c-5.88,0-8.46-1.48-12.04-3.53c-4.42-2.54-9.93-5.7-20.14-5.7
					c-10.22,0-15.72,3.16-20.15,5.7c-3.58,2.05-6.17,3.53-12.04,3.53v16.29c10.22,0,15.72-3.16,20.15-5.7
					C104.77,23.32,107.36,21.84,113.24,21.84z M124.66,275.84H102.2c-8.58-13.31-39.14-62.84-64-129.52l-15.26,5.69
					c29.81,79.96,66.59,134.29,68.14,136.56l2.43,3.55h39.08l2.45-3.03c1.59-1.97,39.38-49.31,69.97-137.26l-15.38-5.35
					C164.28,219.37,133.26,264.2,124.66,275.84z"/>
			</g>
		</g>
	</g>
</g>
<g class="st0">
	<defs>
		
			<rect id="SVGID_00000168076654440373866930000005970879717256415398_" x="-17.35" y="-25.77" transform="matrix(-1 -1.224647e-16 1.224647e-16 -1 104.4734 292.4158)" width="139.18" height="343.96"/>
	</defs>
	<clipPath id="SVGID_00000011730621047858435160000000756762473145625763_" class="st1">
		<use xlink:href="#SVGID_00000168076654440373866930000005970879717256415398_"  style="overflow:visible;"/>
	</clipPath>
	<g style="display:inline;opacity:0.2;clip-path:url(#SVGID_00000011730621047858435160000000756762473145625763_);">
		<g>
			<path class="st8" d="M46.9,216.75c6.57-4.5,37.33-24.84,80.76-41.7l-5.73-14.77c-34.28,13.31-61.12,28.82-75.03,37.56v-72.4
				H10.32v16.08h20.5v150.44H46.9v-38.31c13.52,9.25,38.96,24.56,75.3,37.72l5.39-14.89c-47.59-17.23-75-37.88-80.69-42.41V216.75z"
				/>
		</g>
	</g>
	<g style="display:inline;opacity:0.2;clip-path:url(#SVGID_00000011730621047858435160000000756762473145625763_);">
		<g>
			<g>
				<path class="st8" d="M67.46,15.59c5.21,0,7.5,1.32,10.68,3.13c3.92,2.25,8.8,5.05,17.86,5.05V9.34c-5.21,0-7.5-1.32-10.68-3.13
					c-3.92-2.25-8.8-5.05-17.86-5.05c-9.06,0-13.94,2.8-17.86,5.05c-3.17,1.82-5.47,3.13-10.68,3.13v14.44
					c9.06,0,13.94-2.8,17.86-5.05C59.95,16.91,62.24,15.59,67.46,15.59z M113.85,65.79c-3.92-2.25-8.8-5.05-17.86-5.05
					c-9.06,0-13.94,2.8-17.86,5.05c-3.17,1.82-5.46,3.13-10.68,3.13s-7.51-1.32-10.68-3.13c-3.92-2.25-8.8-5.05-17.86-5.05
					c-9.07,0-13.95,2.8-17.88,5.05c-3.18,1.82-5.48,3.14-10.71,3.14v14.44c9.07,0,13.96-2.8,17.89-5.05
					c3.18-1.82,5.48-3.14,10.7-3.14c5.21,0,7.51,1.32,10.68,3.13c3.92,2.25,8.8,5.05,17.86,5.05c9.06,0,13.94-2.8,17.86-5.05
					c3.17-1.82,5.46-3.13,10.68-3.13c5.21,0,7.5,1.32,10.67,3.13c3.92,2.25,8.8,5.05,17.86,5.05V68.93
					C119.32,68.93,117.02,67.61,113.85,65.79z"/>
			</g>
		</g>
	</g>
</g>
<g>
	<defs>
		
			<rect id="SVGID_00000061443325727928732960000000749564025117020812_" x="-16.32" y="-24.3" transform="matrix(-1 -1.224647e-16 1.224647e-16 -1 106.0948 294.2451)" width="138.73" height="342.84"/>
	</defs>
	<clipPath id="SVGID_00000089550234926448590370000016368873847305288075_">
		<use xlink:href="#SVGID_00000061443325727928732960000000749564025117020812_"  style="overflow:visible;"/>
	</clipPath>
	<g style="clip-path:url(#SVGID_00000089550234926448590370000016368873847305288075_);">
		<g class="st2">
			<g>
				<g>
					<path class="st10" d="M65.84,16.93c5.19,0,7.48,1.31,10.64,3.12c3.91,2.25,8.78,5.04,17.8,5.04V10.7
						c-5.19,0-7.48-1.31-10.64-3.12c-3.91-2.25-8.78-5.04-17.8-5.04c-9.03,0-13.9,2.79-17.81,5.04c-3.16,1.81-5.45,3.12-10.64,3.12
						v14.39c9.03,0,13.9-2.79,17.81-5.04C58.36,18.24,60.64,16.93,65.84,16.93z M112.08,66.97c-3.91-2.25-8.77-5.04-17.8-5.04
						s-13.9,2.79-17.8,5.04c-3.16,1.81-5.45,3.12-10.64,3.12s-7.48-1.31-10.64-3.12c-3.91-2.25-8.78-5.04-17.81-5.04
						c-9.04,0-13.91,2.79-17.82,5.03c-3.17,1.82-5.46,3.13-10.67,3.13v14.39c9.04,0,13.91-2.79,17.83-5.03
						c3.17-1.82,5.46-3.13,10.67-3.13c5.19,0,7.48,1.31,10.64,3.12c3.91,2.25,8.78,5.04,17.81,5.04c9.03,0,13.9-2.79,17.8-5.04
						c3.16-1.81,5.45-3.12,10.64-3.12c5.19,0,7.47,1.31,10.64,3.12c3.91,2.25,8.77,5.04,17.8,5.04V70.09
						C117.53,70.09,115.24,68.78,112.08,66.97z"/>
				</g>
			</g>
		</g>
		<polygon class="st11" points="36.82,275.68 36.82,291.71 93.71,291.71 93.71,275.68 73.28,275.68 73.28,144.8 93.71,144.8 
			93.71,128.77 36.82,128.77 36.82,144.8 57.25,144.8 57.25,275.68 		"/>
	</g>
</g>
</svg>
